# xmcd
#
# Track frame offsets:
#	182
#	14517
#	27105
#	42920
#	64137
#	77987
#	91270
#	104842
#	119457
#	133837
#
# Disc length: 1924 seconds
#
# Revision: 5
# Processed by: cddbd v1.5.1PL2 Copyright (c) Steve Scherf et al.
# Submitted via: dBpowerAMP V4.0
#
DISCID=8907820a
DTITLE=Various Artist - Greatest Country Hits Of The 80's Volume I
DYEAR=1995
DGENRE=Country
TTITLE0=Eddie Rabbitt - I Love A Rainy Night
TTITLE1=Dwight Yoakam - Honky Tonk Man
TTITLE2=Highway 101 - The Bed You Made For Me
TTITLE3=Gary Morris - The Wind Beneath My Wings
TTITLE4=John Anderson - Swinin'
TTITLE5=Hank Williams Jr - All My Rowdy Friends Are Coming Over Tonight
TTITLE6=Randy Travis - 1982
TTITLE7=Forrester Sisters - I Fell In Love Again Last Night
TTITLE8=Conway Twitty - Lost In The Feeling
TTITLE9=Emmylou Harris - Mister Sandman
EXTD=
EXTT0=
EXTT1=
EXTT2=
EXTT3=
EXTT4=
EXTT5=
EXTT6=
EXTT7=
EXTT8=
EXTT9=
PLAYORDER=
